<svg xmlns="http://www.w3.org/2000/svg" xmlns:xlink="http://www.w3.org/1999/xlink" width="350" height="200" viewBox="0 0 350.00001 200.00001"><defs><linearGradient id="a"><stop offset="0" stop-color="gray"/><stop offset="1" stop-color="gray" stop-opacity="0"/></linearGradient><radialGradient xlink:href="#a" id="b" cx="173.929" cy="950.267" fx="173.929" fy="950.267" r="126.121" gradientTransform="matrix(1.31716 .00452 -.00242 .70408 -52.865 279.13)" gradientUnits="userSpaceOnUse"/></defs><path opacity=".96" fill="url(#b)" d="M50.385 876.46h252.087v141.73H50.385z" transform="translate(0 -852.362)"/><path d="M76.07 116.918c.735-1.672 38.303-71.705 38.515-71.796.2-.086 25.33-1.376 131.347-6.742 12.032-.608 21.948-1.078 22.035-1.042.087.035 3.647 17.39 7.91 38.566 4.263 21.175 7.882 39.013 8.04 39.64l.29 1.136-31.64.148c-17.4.08-57.654.245-89.453.364-31.8.12-64.464.27-72.59.334l-14.77.117.317-.725z"/><path d="M70.055 114.142c.733-1.672 38.3-71.705 38.513-71.796.202-.086 25.33-1.376 131.347-6.74 12.032-.61 21.948-1.08 22.035-1.044.087.035 3.647 17.39 7.91 38.566 4.264 21.176 7.882 39.013 8.04 39.64l.29 1.137-31.64.147c-17.4.082-57.654.245-89.453.364-31.8.12-64.463.27-72.588.334l-14.774.118.32-.726z" fill="#2a71ff"/><g font-weight="700" font-size="40" font-family="Hack" letter-spacing="0" word-spacing="0"><text y="951.648" x="108.286" style="line-height:125%;-inkscape-font-specification:'Hack, Bold';text-align:start" transform="translate(4.987 -855.03)"><tspan style="line-height:125%;-inkscape-font-specification:'Hack, Bold';text-align:start" y="951.648" x="108.286">Fuller</tspan></text><text style="line-height:125%;-inkscape-font-specification:'Hack, Bold';text-align:start" x="106.286" y="947.648" fill="#fff" transform="translate(4.987 -855.03)"><tspan x="106.286" y="947.648" style="line-height:125%;-inkscape-font-specification:'Hack, Bold';text-align:start">Fuller</tspan></text></g><g font-weight="700" font-size="40" font-family="Hack" letter-spacing="0" word-spacing="0" stroke-width=".1"><text y="983.658" x="56.607" style="line-height:10.00000015%;-inkscape-font-specification:'Hack, Bold';text-align:start" opacity=".9" transform="translate(5.574 -833.29)"><tspan style="line-height:10.00000015%;-inkscape-font-specification:'Hack, Bold';text-align:start" y="983.658" x="56.607" letter-spacing="-3.32">Development</tspan></text><text style="line-height:10.00000015%;-inkscape-font-specification:'Hack, Bold';text-align:start" x="54.607" y="981.658" fill="#2a71ff" transform="translate(5.574 -833.29)"><tspan x="54.607" y="981.658" style="line-height:10.00000015%;-inkscape-font-specification:'Hack, Bold';text-align:start" letter-spacing="-3.32">Development</tspan></text></g><text y="1002.732" x="60.181" style="line-height:10.00000015%;-inkscape-font-specification:'Hack, Bold';text-align:start" font-weight="700" font-size="40" font-family="Hack" letter-spacing="0" word-spacing="0" opacity=".96" fill="#fff" stroke-width=".1" transform="translate(0 -852.362)"><tspan style="line-height:10.00000015%;-inkscape-font-specification:'Hack, Bold';text-align:start" y="1002.732" x="60.181" letter-spacing="-3.32">Development</tspan></text></svg>