<?xml version="1.0" encoding="UTF-8" standalone="no"?>
<svg
   xmlns:osb="http://www.openswatchbook.org/uri/2009/osb"
   xmlns:dc="http://purl.org/dc/elements/1.1/"
   xmlns:cc="http://creativecommons.org/ns#"
   xmlns:rdf="http://www.w3.org/1999/02/22-rdf-syntax-ns#"
   xmlns:svg="http://www.w3.org/2000/svg"
   xmlns="http://www.w3.org/2000/svg"
   xmlns:xlink="http://www.w3.org/1999/xlink"
   version="1.1"
   id="svg2"
   viewBox="0 0 350.00001 200.00001"
   height="200"
   width="350">
  <defs
     id="defs4">
    <linearGradient
       osb:paint="solid"
       id="linearGradient6262">
      <stop
         id="stop6264"
         offset="0"
         style="stop-color:#000000;stop-opacity:1;" />
    </linearGradient>
    <linearGradient
       gradientUnits="userSpaceOnUse"
       y2="856.32703"
       x2="308.10605"
       y1="856.32703"
       x1="42.711506"
       id="linearGradient6266"
       xlink:href="#linearGradient6262" />
  </defs>
  <metadata
     id="metadata7">
    <rdf:RDF>
      <cc:Work
         rdf:about="">
        <dc:format>image/svg+xml</dc:format>
        <dc:type
           rdf:resource="http://purl.org/dc/dcmitype/StillImage" />
        <dc:title></dc:title>
      </cc:Work>
    </rdf:RDF>
  </metadata>
  <g
     transform="translate(0,-852.36218)"
     id="layer1">
    <path
       id="path4016-9"
       d="m 21.480289,1042.7099 c 1.10853,-3.7392 57.90505,-160.41047 58.22587,-160.61405 0.30436,-0.19314 38.294061,-3.07853 198.574411,-15.08206 18.19038,-1.36229 33.1812,-2.41207 33.31293,-2.33285 0.13175,0.0792 5.51319,38.90339 11.95879,86.27592 6.44557,47.37251 11.91551,87.27724 12.1554,88.67714 l 0.43616,2.5452 -47.83075,0.3305 c -26.30692,0.1818 -87.16453,0.5482 -135.23914,0.8141 -48.0746,0.266 -97.458361,0.602 -109.741671,0.7466 l -22.33329,0.263 0.48129,-1.6235 z"
       style="fill:#000000" />
    <path
       id="path4016"
       d="m 12.384302,1036.5001 c 1.108523,-3.7392 57.905046,-160.41047 58.225868,-160.61405 0.304356,-0.19314 38.29406,-3.07853 198.5744,-15.08206 18.19039,-1.36229 33.18121,-2.41207 33.31294,-2.33285 0.13175,0.0792 5.51319,38.90339 11.95879,86.27592 6.44557,47.37252 11.91551,87.27724 12.1554,88.67714 l 0.43616,2.5453 -47.83075,0.3305 c -26.30693,0.1817 -87.16454,0.5481 -135.23915,0.814 -48.074596,0.266 -97.458355,0.602 -109.741664,0.7466 l -22.333289,0.263 0.481295,-1.6235 z"
       style="fill:#2a71ff;fill-opacity:1" />
    <text
       id="text4008"
       y="986.64789"
       x="42.142868"
       style="font-style:normal;font-weight:normal;font-size:40px;line-height:125%;font-family:Sans;letter-spacing:0px;word-spacing:0px;opacity:1;fill:#ffffff;fill-opacity:1;stroke:none;stroke-width:1.25;stroke-linecap:butt;stroke-linejoin:miter;stroke-miterlimit:4;stroke-dasharray:none;stroke-opacity:1"
       xml:space="preserve"><tspan
         style="stroke:none;stroke-width:1.25;stroke-miterlimit:4;stroke-dasharray:none"
         y="986.64789"
         x="42.142868"
         id="tspan4010">Development</tspan></text>
    <text
       id="text4000"
       y="951.64789"
       x="104.28571"
       style="font-style:normal;font-weight:normal;font-size:40px;line-height:125%;font-family:Sans;letter-spacing:0px;word-spacing:0px;fill:#ffffff;fill-opacity:1;stroke:none;stroke-width:1px;stroke-linecap:butt;stroke-linejoin:miter;stroke-opacity:1"
       xml:space="preserve"><tspan
         style="font-style:normal;font-variant:normal;font-weight:normal;font-stretch:normal;font-family:Hack;-inkscape-font-specification:Hack;fill:#ffffff"
         id="tspan4004"
         y="951.64789"
         x="104.28571">Fuller</tspan></text>
  </g>
</svg>
